<?xml version="1.0" encoding="utf-8"?>
<!-- Generator: Adobe Illustrator 19.0.0, SVG Export Plug-In . SVG Version: 6.00 Build 0)  -->
<svg version="1.1" id="圖層_1" xmlns="http://www.w3.org/2000/svg" xmlns:xlink="http://www.w3.org/1999/xlink" x="0px" y="0px"
	 viewBox="0 0 1132 299" style="enable-background:new 0 0 1132 299;" xml:space="preserve">
<style type="text/css">
	.st0{fill-rule:evenodd;clip-rule:evenodd;fill:#E58121;}
	.st1{fill:#247195;}
	.st2{fill:#898989;}
    #logo_svg_plan{
        animation: planFly 5s linear infinite;
    }

    @keyframes planFly {
        0%      { transform: translate(20px, -5px); opacity: 0; }
        5%      { transform: translate(20px, -5px); opacity: 1; }

        95%      { transform: translate(550px, -15px); opacity: 1; }
        100%      { transform: translate(600px, -15px); opacity: 0; }
    }
</style>
<g id="XMLID_84_">
	<g id="XMLID_118_">
		<g id="XMLID_138_">
			<g id="logo_svg_plan">
			<path id="XMLID_82_" class="st0" d="M477.7,31.9l-29.1,3.2l-27.3-24l-13.5,1.1l21,25.1l-19.6,2.1l-13.9-11.6l-13.3,0.6l16.2,19.8
				l0.1,0c0,0,0,0,0,0.1c6.8,7.3,9,7.1,28.9,5.5l52.8-4.3c4.3-0.3,8.2-5.2,7.6-9.5C487,35.7,482,31.6,477.7,31.9z"/>
			</g>
			<g id="XMLID_166_">
				<path id="XMLID_167_" class="st1" d="M110.2,69.8l5.2-9.7c2.3-4.3,4.3-8,5.9-10.9c1.6-2.9,2.5-4.6,2.8-5
					c1.5-2.6,1.9-4.9,1.1-6.7c-0.8-1.8-2.5-2.7-5-2.7l-8,0c-2.6,0-5.3,0.9-8.1,2.7c-2.8,1.8-5,4-6.5,6.7l-8.9,16.5l-7.4,14.1
					c-29.6,5.9-61.2,14.9-69.2,26.3C3,114.1,41,117.6,59,118.5c-3.4,6.7-6.7,13.2-9.8,19.3c-4.2,8.2-7.8,15.5-10.8,21.8
					c-3,6.3-4.9,10.6-5.8,12.9c-1.8,5.1-2.9,10.1-3.1,14.9c-0.2,4.8,0.4,9,1.9,12.6c1.5,3.6,3.8,6.2,7.1,7.9
					c3.2,1.7,7.5,1.9,12.8,0.8c24.1-4.9,70.2-64.2,70.2-64.2c-70.6,51.5-65,36.8-65,36.8c-0.1-2.6,1-6.7,3.3-12.3
					c1.2-2.6,3.3-7.1,6.3-13.3c3-6.2,6.5-13.4,10.6-21.4c4.1-8,8.4-16.5,13-25.4c4.1-7.8,7.8-15.5,11.5-22.7
					c20-2.8,70.7-11,270.2-29.6c-0.7-0.8-3.8-8.5-9.7-14.9c-6.2-6.7-13-5.1-13-5.1C145.2,61.9,110.2,69.8,110.2,69.8z M24.7,104.6
					c-5.1-3.6,24.8-10.9,48.7-15.2c-3.3,6.5-7.2,15-10.8,22c-0.2,0.3-0.3,0.7-0.5,1C49.5,111.1,29,107.7,24.7,104.6z"/>
			</g>
			<g id="XMLID_163_">
				<path id="XMLID_164_" class="st1" d="M149.3,164.5c1.6-2.9,3-6.5,5.1-10.3c2-3.7,4.2-7.5,6.6-11.1c2.3-3.7,4.2-6.8,5.5-9.3
					c-2.8,0.7-6,2.5-9.6,5.3c-3.6,2.8-7.1,6.1-10.7,9.9c-3.5,3.8-6.8,7.7-10,11.9c-3.2,4.2-5.7,8.1-7.6,11.8
					c-1.9,3.7-3.6,7.1-5.2,10.3c-1.6,3.2-3,6-4.2,8.4c-1.5,2.7-2.8,5.2-3.8,7.4c-1.7,2.7-3.9,5-6.7,6.7c-2.8,1.7-5.5,2.6-8,2.6h-8
					c-2.6,0-4.2-0.9-4.9-2.7c-0.7-1.8-0.3-4,1.2-6.6l40.6-78.2c1.5-2.7,3.7-4.9,6.5-6.6c2.8-1.6,5.5-2.5,8-2.5h8
					c2.6,0,4.2,0.9,5,2.6c0.8,1.7,0.4,3.9-1.1,6.4l-7.2,12.9c4.8-4.9,9.6-9.1,14.4-12.5c4.9-3.4,9.4-6,13.5-7.8
					c4.1-1.8,7.8-2.8,11-3c3.2-0.2,5.5,0.4,7,1.6c2.9,2.6,3.6,6.1,2.2,10.6c-1.4,4.5-3.5,9.1-6.5,13.9c-3,4.8-6,9.2-9,13.4
					c-3.1,4.2-4.8,7.3-5.1,9.3c5.5-2,7-3.2,13.8-7.7l20.6-15.6c0,0-24.4,32.5-36.5,37.7c-7.4,3.1-10.5,4.3-15.2,4.5
					C142.4,178.7,149.3,164.5,149.3,164.5z"/>
			</g>
			<g id="XMLID_160_">
				<path id="XMLID_161_" class="st1" d="M390.9,164.5c1.6-2.9,3-6.5,5.1-10.3c2-3.7,4.2-7.5,6.6-11.1c2.3-3.7,4.2-6.8,5.5-9.3
					c-2.8,0.7-6,2.5-9.6,5.3c-3.6,2.8-7.1,6.1-10.7,9.9c-3.5,3.8-6.8,7.7-10,11.9c-3.2,4.2-5.7,8.1-7.6,11.8
					c-1.9,3.7-3.6,7.1-5.2,10.3c-1.6,3.2-3,6-4.2,8.4c-1.5,2.7-2.8,5.2-3.8,7.4c-1.7,2.7-3.9,5-6.7,6.7c-2.8,1.7-5.5,2.6-8,2.6h-8
					c-2.6,0-4.2-0.9-4.9-2.7c-0.7-1.8-0.3-4,1.2-6.6l40.6-78.2c1.5-2.7,3.7-4.9,6.5-6.6c2.8-1.6,5.5-2.5,8-2.5h8
					c2.6,0,4.2,0.9,5,2.6c0.8,1.7,0.4,3.9-1.1,6.4l-7.2,12.9c4.8-4.9,9.6-9.1,14.4-12.5c4.9-3.4,9.4-6,13.5-7.8
					c4.1-1.8,7.8-2.8,11-3c3.2-0.2,5.5,0.4,7,1.6c2.9,2.6,3.6,6.1,2.2,10.6c-1.4,4.5-3.5,9.1-6.5,13.9c-3,4.8-6,9.2-9,13.4
					c-3.1,4.2-4.8,7.3-5.1,9.3c5.5-2,7-3.2,13.8-7.7l20.6-15.6c0,0-24.4,32.5-36.5,37.7c-7.4,3.1-10.5,4.3-15.2,4.5
					C384.1,178.7,390.9,164.5,390.9,164.5z"/>
			</g>
			<g id="XMLID_156_">
				<path id="XMLID_157_" class="st1" d="M546.8,138.5c0,1.7-0.6,3.6-1.8,5.6c-4.6,6.6-10.4,13.6-17.2,21.1
					c-6.8,7.5-14.1,14.4-21.7,20.7c-7.6,6.3-15.2,11.6-22.9,15.8c-7.6,4.2-14.7,6.3-21.3,6.3c-9.5,0-16.7-2.4-21.6-7.1
					c-4.9-4.8-7.8-10.7-8.7-18c-0.9-7.2,0.1-15,2.9-23.3c2.8-8.3,7.2-16.1,13-23.3c5.8-7.2,13-13.2,21.5-18
					c8.5-4.8,18.1-7.1,28.7-7.1c4.2,0,8,0.7,11.4,2.1c3.4,1.4,6,3.2,8,5.5c2,2.3,3.1,5.1,3.3,8.4c0.2,3.3-0.6,6.9-2.7,10.7
					c-2,4-5,7.9-9,11.5c-4,3.7-8.7,7-14.2,9.9c-5.5,2.9-11.6,5.4-18.4,7.4c-6.8,2-13.8,3.3-21.2,3.8c-0.2,4.6,0.4,8.6,1.9,11.9
					c1.5,3.4,4.2,5.5,8.1,6.4c3.9,1.1,8.7,0.3,14.7-2.2C524.7,167.4,546.8,138.5,546.8,138.5z M482.4,124.7
					c-2.9,1.1-5.7,2.8-8.4,5.1c-2.7,2.3-5.1,5-7.4,8.2c-2.2,3.2-4.2,6.6-5.9,10.3c-1.7,3.7-3,7.3-4,11c8.1-0.9,14.9-2.6,20.5-5.1
					c5.6-2.5,10-5.2,13.3-8.2c3.3-3,5.5-6.1,6.6-9.3c1.1-3.2,1.4-5.9,0.7-8.1c-0.7-2.2-2.3-3.7-5-4.7
					C490.2,122.9,486.7,123.2,482.4,124.7z"/>
			</g>
			<g id="XMLID_153_">
				<path id="XMLID_154_" class="st1" d="M539.8,130.7c3.5-5.9,8.9-10.4,16.4-13.7c7.4-3.3,16.5-4.9,27.1-4.9
					c5.1,0,9.3,0.8,12.5,2.5c3.2,1.6,3.9,4.9,2.1,9.9c-1.1,2.9-3,6-5.8,9.3c-2.8,3.3-6.1,5.7-10.1,7.1c-1.9,0.5-4,1-6.4,1.2
					c-2.3,0.3-4.4,0.2-6.3-0.1c-1.9-0.4-3.3-1-4.2-1.9c-0.9-0.9-0.9-2.2,0.1-3.8c0.6-0.9,1.3-2,2.2-3.2c0.9-1.2,1.7-2.4,2.3-3.7
					c0.7-1.3,1.1-2.4,1.4-3.4c0.3-1,0.1-1.9-0.6-2.6c-2.6-0.4-5.6,0.3-9,1.9c-3.4,1.6-5.7,4-7.2,7.1c-1.3,2.7-1.2,5.2,0.4,7.3
					c1.6,2.1,3.8,4.1,6.7,5.9c2.9,1.8,6.1,3.8,9.7,5.9c3.6,2.1,6.7,4.5,9.4,7.3c2.7,2.7,4.6,6,5.8,9.9c1.2,3.8,0.8,8.5-1.1,14
					c-1.6,4.4-3.9,8.3-7.2,11.7c-3.2,3.4-6.9,6.1-11.1,8.2c-4.2,2.1-8.8,3.6-13.9,4.4c-5.1,0.8-10.2,1.1-15.4,0.7
					c-7.4-0.5-13.1-2.6-16.9-6c-3.8-3.5-6.2-7.3-7.1-11.4c-0.9-4.1-0.5-8.1,1.1-11.9c1.6-3.8,3.9-6.6,7.1-8.2
					c1.7-0.9,3.9-1.4,6.7-1.4c2.8,0,5.4,0.3,7.7,0.8c2.3,0.6,4.1,1.4,5.4,2.5c1.3,1.1,1.3,2.4-0.1,3.8c-1,1.3-2.2,2.9-3.5,4.8
					c-1.3,1.9-2.2,3.9-2.9,6c-0.6,2.1-0.8,4-0.4,5.8c0.3,1.7,1.6,3,3.7,3.7c2.2,0.9,4.6,1.3,7.3,1.1c2.7-0.2,5.3-0.9,7.8-2.1
					c2.5-1.2,4.8-2.8,6.8-4.9c2-2.1,3.3-4.8,4-8.1c0.7-3.3,0.1-6.1-1.9-8.5c-1.9-2.4-4.3-4.6-7.1-6.7c-2.9-2.1-5.9-4.2-9.1-6.3
					c-3.2-2.1-5.9-4.5-7.9-7.1c-2-2.6-3.1-5.8-3.3-9.5C535.2,140.2,536.7,135.8,539.8,130.7z"/>
			</g>
			<g id="XMLID_150_">
				<path id="XMLID_151_" class="st1" d="M614.8,130.7c3.5-5.9,8.9-10.4,16.4-13.7c7.4-3.3,16.5-4.9,27.1-4.9
					c5.1,0,9.3,0.8,12.5,2.5c3.2,1.6,3.9,4.9,2.1,9.9c-1.1,2.9-3,6-5.8,9.3c-2.8,3.3-6.1,5.7-10.1,7.1c-1.9,0.5-4,1-6.4,1.2
					c-2.3,0.3-4.4,0.2-6.3-0.1c-1.9-0.4-3.3-1-4.2-1.9c-0.9-0.9-0.9-2.2,0.1-3.8c0.6-0.9,1.3-2,2.2-3.2c0.9-1.2,1.7-2.4,2.3-3.7
					c0.7-1.3,1.1-2.4,1.4-3.4c0.3-1,0.1-1.9-0.6-2.6c-2.6-0.4-5.6,0.3-9,1.9c-3.4,1.6-5.7,4-7.2,7.1c-1.3,2.7-1.2,5.2,0.4,7.3
					c1.6,2.1,3.8,4.1,6.7,5.9c2.9,1.8,6.1,3.8,9.7,5.9c3.6,2.1,6.7,4.5,9.4,7.3c2.7,2.7,4.6,6,5.8,9.9c1.2,3.8,0.8,8.5-1.1,14
					c-1.6,4.4-4,8.3-7.2,11.7c-3.2,3.4-6.9,6.1-11.1,8.2c-4.2,2.1-8.8,3.6-13.9,4.4c-5.1,0.8-10.2,1.1-15.4,0.7
					c-7.4-0.5-13.1-2.6-16.9-6c-3.8-3.5-6.2-7.3-7.1-11.4c-0.9-4.1-0.5-8.1,1.1-11.9c1.6-3.8,3.9-6.6,7.1-8.2
					c1.7-0.9,3.9-1.4,6.7-1.4c2.8,0,5.4,0.3,7.7,0.8c2.3,0.6,4.1,1.4,5.4,2.5c1.3,1.1,1.3,2.4-0.1,3.8c-1,1.3-2.2,2.9-3.5,4.8
					c-1.3,1.9-2.2,3.9-2.9,6c-0.6,2.1-0.8,4-0.4,5.8c0.3,1.7,1.6,3,3.7,3.7c2.2,0.9,4.6,1.3,7.3,1.1c2.7-0.2,5.3-0.9,7.8-2.1
					c2.5-1.2,4.8-2.8,6.8-4.9c2-2.1,3.3-4.8,4-8.1c0.7-3.3,0.1-6.1-1.8-8.5c-1.9-2.4-4.3-4.6-7.1-6.7c-2.9-2.1-5.9-4.2-9.1-6.3
					c-3.2-2.1-5.9-4.5-7.9-7.1c-2-2.6-3.1-5.8-3.3-9.5C610.2,140.2,611.7,135.8,614.8,130.7z"/>
			</g>
			<g id="XMLID_146_">
				<path id="XMLID_147_" class="st1" d="M749,117.5c3.5,3.3,5.9,7.5,7.3,12.5c1.3,5,1.4,10.6,0.3,16.6c-1.1,6-3.2,12.3-6.4,18.7
					c-3.2,6.4-7.5,12.5-12.8,18.4c-5.1,5.9-10.7,10.7-16.6,14.7c-5.9,3.9-11.8,6.8-17.5,8.5c-5.7,1.7-11.2,2.3-16.4,1.8
					c-5.2-0.5-9.6-2.5-13.1-5.8c-3.7-3.3-6.2-7.5-7.4-12.5c-1.2-5-1.3-10.6-0.2-16.6c1.1-6,3.2-12.2,6.3-18.7
					c3.1-6.4,7.3-12.5,12.6-18.4c5.1-6,10.6-11,16.6-14.9c5.9-3.9,11.8-6.8,17.6-8.5c5.8-1.7,11.3-2.3,16.4-1.6
					C740.8,112.3,745.3,114.2,749,117.5z M730.2,165.8c2.6-4.6,4.7-9.1,6.3-13.4c1.6-4.4,2.5-8.5,2.9-12.3c0.4-3.8,0.2-7.2-0.6-10
					c-0.8-2.8-2.1-4.9-4-6.2c-2.1-1.3-4.5-1.6-7.2-1.1c-2.7,0.5-5.6,1.9-8.6,4.1c-3,2.2-6,5-9.1,8.5c-3.1,3.5-6,7.5-8.6,12.1
					c-2.6,4.6-4.7,9.1-6.1,13.4c-1.5,4.4-2.4,8.5-2.8,12.2c-0.4,3.8-0.2,7,0.6,9.9c0.8,2.8,2.1,4.9,4,6.2c2.1,1.3,4.5,1.6,7.2,1.1
					c2.7-0.5,5.6-1.9,8.6-4c3-2.1,6-4.9,9-8.4C724.8,174.4,727.6,170.4,730.2,165.8z"/>
			</g>
			<g id="XMLID_142_">
				<path id="XMLID_143_" class="st1" d="M271,200.4c-2.1-2.6-3.5-5.3-4.3-8.2c-5.8,11.9-10.2,22.9-16.3,36.3
					c-6.1,13.3-12.3,27.1-18.4,41.2c-1,2.6-2.8,3.6-5.3,3c-2.6-0.5-5.1-1.9-7.5-4.1c-2.4-2.2-4.4-5-5.8-8.4c-1.4-3.4-1.7-6.7-0.6-10
					c0.3-1.1,1.5-3.8,3.6-8.1c2-4.3,4.6-9.6,7.7-15.9c3.1-6.3,5-11.7,8.9-19.3c3.9-7.6,7.9-15.3,12-23.2c4.1-7.9,8.1-15.5,11.9-23
					c3.8-7.5,7.2-14.2,10.3-20c3-5.8,5.5-10.6,7.5-14.3c2-3.7,3-5.6,3.2-5.8c1.5-2.7,3.7-4.9,6.5-6.6c2.8-1.6,5.5-2.5,8-2.5h8
					c2.6,0,4.2,0.9,5,2.6c0.8,1.7,0.4,3.9-1.1,6.4l-3.5,6c8.5-6.6,16.6-11.1,24.5-13.6c7.9-2.5,14.3-1.6,19.3,2.6
					c3.3,2.9,5.3,7,5.9,12.1c0.7,5.1,0.2,10.8-1.4,17c-1.6,6.2-4.2,12.7-7.8,19.5c-3.6,6.8-7.8,13.3-12.7,19.5
					c-5.1,6.2-10.4,11.2-15.9,15c-5.5,3.8-10.9,6.3-16.2,7.5c-5.3,1.3-10.1,1.4-14.6,0.4C277.4,205.6,273.7,203.5,271,200.4z
					 M286.6,154.6c-3.6,6-6.3,11.3-8,15.8c-1.7,4.5-2.7,8.3-2.9,11.5c-0.2,3.2,0.1,5.8,0.9,7.8c0.8,2,2,3.5,3.4,4.4
					c3.7,2.2,8.6,1.5,14.6-2.1c6-3.6,11.6-9.9,16.9-19.1c2.6-4.6,5-9.1,7.1-13.6c2.1-4.5,3.6-8.7,4.7-12.6c1-3.9,1.4-7.3,1.1-10.2
					c-0.3-2.8-1.2-4.9-2.9-6.2c-1.7-1.3-4-1.6-6.8-1c-2.8,0.6-5.8,2.1-9.1,4.3c-3.3,2.2-6.6,5.1-9.9,8.6
					C292.2,145.9,289.2,150,286.6,154.6z"/>
			</g>
			<path id="XMLID_43_" class="st1" d="M269.5,146.9c0,0-25.1,31-37.3,44.5c-4,4.4-8.5,7.5-12.7,10.6c-4.2,3-8.2,4.9-12.1,5.6
				c-5.1,1.1-9.3,0.8-12.5-0.8c-3.2-1.6-5.6-4.2-7-7.7c-1.5-3.5-2.1-7.5-1.9-12.2c0.2-4.7,1.4-9.5,3.4-14.4
				c1.3-3.7,3.3-8.2,5.8-13.6c2.6-5.4,5.2-10.7,7.9-15.9c2.7-5.2,5.2-9.9,7.5-14.1c2.3-4.2,3.9-6.9,4.8-8.2c1.5-2.7,3.7-4.9,6.5-6.6
				c2.8-1.6,5.5-2.5,8-2.5h8c2.6,0,4.2,0.9,5,2.6c0.8,1.7,0.4,3.9-1.1,6.4c-0.6,0.9-1.9,3.1-4,6.6c-2.1,3.5-4.4,7.6-6.9,12.5
				c-2.5,4.8-5.1,9.9-7.8,15.1c-2.7,5.2-5,10-6.9,14.4c-2.5,5.5-3.6,9.5-3.5,11.9c0.1,2.5,0.9,3.9,2.4,4.3c1.9,0.5,4.5-1,8.5-3.6
				c15.3-9.5,22.7-16.6,22.7-16.6L269.5,146.9z"/>
			<path id="XMLID_42_" class="st1" d="M254.1,88.7c0.6,3.2,0,5.9-1.7,8.2c-1.8,2.2-4.2,3.4-7.4,3.4c-3.2,0-6.1-1.1-8.8-3.4
				c-2.7-2.2-4.3-5-4.9-8.2c-0.6-3.2,0-5.9,1.9-8.1c1.8-2.2,4.4-3.2,7.6-3.2c3.2,0,6.1,1.1,8.7,3.2
				C251.9,82.8,253.5,85.4,254.1,88.7z"/>
			<path id="XMLID_41_" class="st1" d="M463.5,51.3"/>
		</g>
		<g id="XMLID_119_">
			<path id="XMLID_134_" class="st1" d="M801.2,127.2h-6.5c-0.8-0.1-1.5-0.3-2.2-0.8c-0.7-0.5-1-1.3-1-2.2c0.1-1,0.3-1.8,0.8-2.3
				c0.7-0.5,1.5-0.8,2.4-0.8h12.7v-9.4c0-1,0.2-1.8,0.7-2.3c0.6-0.5,1.4-0.8,2.3-0.8c0.8,0.1,1.5,0.3,2.2,0.8
				c0.6,0.6,0.9,1.4,0.9,2.3v9.4h13c0.7,0,1.4,0.2,2.1,0.7c0.7,0.6,1,1.3,1,2.2c-0.1,1-0.3,1.8-0.8,2.3c-0.7,0.6-1.4,0.9-2.3,0.9
				h-19.1v8.9c0,1.2,0,2.6-0.1,4h8.3c2.1,0,4.1,0.4,6,1.2c1.8,0.8,3.1,2,4,3.4c1,1.7,1.5,4.2,1.4,7.5c-0.1,14.5-0.3,24.6-0.8,30.5
				c-0.6,5.9-1.4,10.5-2.3,13.9c-0.8,2.6-2.2,4.5-4.3,5.8c-1.6,0.7-3.5,0.9-5.9,0.7c-2.3-0.2-5-0.8-8.1-1.9c-1.1-0.4-1.9-1-2.3-1.6
				c-0.3-0.9-0.4-1.8-0.1-2.7c0.3-0.8,0.8-1.4,1.7-1.9c0.8-0.3,1.7-0.3,2.8,0c2.1,0.8,3.7,1.2,5,1.4c1.4,0.2,2.5,0.2,3.4-0.1
				c1-0.6,1.9-2.3,2.6-4.9c0.6-2.5,1.2-7.3,1.7-14.4c0.4-5.8,0.6-14.2,0.6-25.4c0-2.1-0.6-3.5-1.6-4.2c-1.1-0.8-2.6-1.2-4.5-1.2H807
				c-0.3,4-0.6,8.3-0.8,13.1c-0.7,7.8-1.8,15.3-3.2,22.5c-1.4,7.1-3.1,13.6-5,19.6c-0.5,1-1.1,1.7-1.8,2c-0.8,0.3-1.5,0.3-2.2,0
				c-0.9-0.3-1.5-0.7-1.8-1.3c-0.3-0.8-0.3-1.8,0-2.8c1.6-5.2,3.2-11.2,4.6-17.8c1.7-7.7,2.8-15.2,3.3-22.6c0.7-9.1,1-16.6,1-22.6
				V127.2z M832.1,141.4c-0.8,0.2-1.5-0.1-2.2-0.9c-0.7-0.9-1-1.7-0.9-2.4c0.1-0.8,0.5-1.6,1.4-2.7c2.9-3.5,5-7.2,6.3-11.2
				c1.4-3.8,2.3-8,2.7-12.4c0.1-1.1,0.4-1.9,1.1-2.4c0.5-0.5,1.2-0.7,2.1-0.7c1,0.2,1.7,0.5,2.2,1c0.5,0.7,0.8,1.5,0.7,2.6
				c-0.3,2-0.6,3.9-1,5.9h39.6c0.7,0,1.4,0.2,2.1,0.7c0.7,0.6,1,1.3,1,2.2c-0.1,1-0.3,1.8-0.8,2.3c-0.7,0.6-1.4,0.9-2.3,0.9h-41.2
				c-0.3,0.8-0.5,1.7-0.8,2.6c-2,5.3-4.5,9.6-7.4,13C833.9,140.8,833,141.3,832.1,141.4z M877.9,131.5c0.8-0.3,1.6-0.4,2.5-0.1
				c0.6,0.3,1.1,0.9,1.5,1.8c0.3,0.9,0.3,1.7,0,2.4c-0.2,0.7-0.8,1.2-1.7,1.6c-4.8,2.1-10.4,3.8-16.9,5.4c-0.4,0.1-0.7,0.2-0.9,0.3
				c0.1,3.9,0.2,7.4,0.5,10.5c0.3,3.7,0.9,7.2,1.5,10.6c6.2-2.7,11.6-5.8,16-9.1c0.8-0.6,1.6-0.9,2.5-0.8c0.8,0.1,1.4,0.6,2.1,1.2
				c0.4,0.8,0.6,1.6,0.5,2.3c-0.1,0.8-0.6,1.5-1.4,2.2c-4.9,3.6-10.8,7-17.9,10.2c0.7,1.6,1.4,3.3,2.1,4.9c2.1,4.7,4.7,9.2,7.6,13.3
				c2.7,3.7,5.9,7.1,9.5,10.3c0.8,0.7,1.1,1.5,1.1,2.4c0.1,0.8-0.2,1.5-0.9,2.2c-0.6,0.5-1.3,0.9-2,0.9c-1,0-1.8-0.3-2.5-1
				c-4-3.5-7.3-7.2-10.1-11.1c-3.2-4.6-6-9.5-8.3-14.7c-3.1-6.8-5-14.7-5.7-23.6c-0.3-3-0.6-6-0.6-9.2c-3.4,0.6-6.6,1.2-9.6,1.9
				v54.6c0,1-0.3,1.7-0.9,2.4c-0.5,0.5-1.3,0.9-2.2,0.9c-0.8-0.1-1.5-0.3-2.2-0.8c-0.6-0.6-0.8-1.4-0.8-2.5V147
				c-1.9,0.2-3.6,0.4-5.3,0.6c-0.9,0.1-1.7,0-2.4-0.5c-0.7-0.5-1.1-1.2-1.1-2.1c-0.1-1,0-1.8,0.5-2.4c0.5-0.7,1.2-1.1,2.1-1.1
				c8.5-0.8,17.1-2.3,25.7-4.3C867.9,135.3,873.7,133.3,877.9,131.5z"/>
			<path id="XMLID_128_" class="st1" d="M929.3,191.9c5,3,11.9,4.5,20.6,4.5h44.9c1,0.1,1.7,0.3,2.2,0.8c0.6,0.6,0.9,1.4,0.9,2.5
				c0,0.8-0.3,1.5-0.9,2c-0.6,0.5-1.3,0.8-2.2,0.8h-44.9c-10,0-18.2-2.2-24.6-6.6c-1.9-1.3-3.4-2.6-4.6-3.8
				c-2.6,4.3-7.4,8.1-14.4,11.2c-0.7,0.3-1.4,0.3-2.1,0.1c-0.8-0.2-1.3-0.7-1.5-1.3c-0.4-0.8-0.5-1.6-0.3-2.5
				c0.2-0.9,0.7-1.5,1.3-1.8c8.8-3.8,13.2-8.3,13.2-13.7v-31.3c0-3.2-1.6-4.7-4.7-4.7h-5.9c-0.8-0.1-1.4-0.3-2.1-0.8
				c-0.6-0.5-0.9-1.3-0.9-2.4c0.1-0.9,0.3-1.6,0.8-2.1c0.5-0.5,1.3-0.8,2.2-0.8h7.4c6.2,0.1,9.3,3.1,9.3,9.2v32.9
				C923,186.8,925.2,189.4,929.3,191.9z M904.5,114.9c-0.2-0.8-0.1-1.5,0.4-2.4c0.5-0.8,1.2-1.2,1.9-1.4c0.8-0.1,1.7,0,2.6,0.5
				c4,2.3,8.2,5.6,12.6,9.8c0.7,0.7,1.1,1.4,1.1,2.3c0.1,0.8-0.2,1.6-0.8,2.3c-0.6,0.6-1.3,0.9-2.2,0.9c-0.8,0-1.6-0.3-2.5-1
				c-3.8-3.9-7.6-6.9-11.3-9C905.3,116.4,904.7,115.7,904.5,114.9z M943.1,135.9h5.4c2.1,0,4.1,0.4,6,1.2c1.8,0.8,3.1,2,4,3.4
				c1,1.7,1.5,4.2,1.4,7.5c-0.1,11.4-0.3,19.4-0.7,24c-0.4,4.6-1,8.2-1.6,10.9c-0.6,2.1-1.7,3.6-3.4,4.5c-1.3,0.7-3,1-5.1,1
				c-2.1-0.1-4.5-0.4-7.4-1.1c-1.1-0.3-1.9-0.9-2.4-1.5c-0.5-0.8-0.6-1.7-0.3-2.6c0.3-0.9,0.8-1.5,1.4-2c0.8-0.5,1.7-0.6,2.8-0.3
				c1.8,0.6,3.3,0.8,4.5,0.8c1.3,0.1,2.3,0,3-0.3c0.7-0.5,1.2-1.7,1.6-3.8c0.5-1.9,0.9-5.6,1.1-10.9c0.3-4.4,0.4-10.8,0.4-19.4
				c0-2.1-0.5-3.5-1.6-4.2c-1.1-0.8-2.6-1.2-4.5-1.2h-4.7c-0.1,3.3-0.4,7-0.8,11.2c-0.6,5.6-1.6,10.8-2.9,15.9
				c-1.4,5.1-3,9.7-4.7,13.9c-0.5,1-1.1,1.6-1.8,1.9c-0.7,0.2-1.4,0.2-2.3-0.1c-0.8-0.3-1.4-0.9-1.6-1.5c-0.3-0.8-0.2-1.7,0.2-2.8
				c1.4-3.6,2.8-7.7,4.1-12.2c1.5-5.3,2.5-10.5,3-15.6c0.6-6.2,0.9-11.5,0.9-15.7v-11.7h-5.7c-0.8-0.1-1.5-0.3-2.2-0.8
				c-0.7-0.5-1-1.3-1-2.2c0.1-1,0.3-1.8,0.8-2.3c0.7-0.5,1.5-0.8,2.4-0.8h11.4v-7.3c0-1,0.2-1.8,0.7-2.3c0.6-0.5,1.4-0.8,2.3-0.8
				c0.8,0.1,1.5,0.3,2.2,0.8c0.6,0.6,0.9,1.4,0.9,2.3v7.3H959c0.7,0,1.4,0.2,2.1,0.7c0.7,0.6,1,1.3,1,2.2c-0.1,1-0.3,1.8-0.8,2.3
				c-0.7,0.6-1.4,0.9-2.3,0.9h-15.8V135.9z M970,109.2c0.5-0.5,1.2-0.7,2.1-0.6c0.7,0.2,1.4,0.5,1.9,1c0.5,0.7,0.6,1.5,0.4,2.4
				c-0.3,1.3-0.6,2.8-1,4.5h21.9c0.7,0,1.4,0.2,2.1,0.7c0.7,0.6,1,1.3,1,2.2c-0.1,1-0.3,1.8-0.8,2.3c-0.7,0.6-1.4,0.9-2.3,0.9h-23.9
				c-0.6,1.9-1.3,3.6-2,5.4c-1.2,2.6-2.3,4.7-3.4,6.2c-0.6,0.8-1.3,1.3-2,1.3c-0.7,0.1-1.4,0-2.1-0.4c-0.6-0.5-1-1.2-1.2-1.9
				c0-0.8,0.2-1.6,0.7-2.3c1.9-2.8,3.4-5.9,4.7-9.3c1.2-3.6,2.1-7,2.7-10.4C969,110.4,969.4,109.7,970,109.2z M994.4,129.9
				c0.8,0.6,1.1,1.4,1.1,2.5c-0.1,1-0.7,2-1.8,3.1l-7.9,11.1c-0.5,1.2-0.7,2.2-0.7,3.1c0,1,0.1,2,0.3,2.8c1.2,1.5,2.3,3.1,3.2,4.8
				h5.8c0.7,0,1.4,0.2,2.1,0.7c0.7,0.6,1,1.3,1,2.2c-0.1,1-0.3,1.8-0.8,2.3c-0.7,0.6-1.4,0.9-2.3,0.9h-3.6c1,3.7,1.3,7,1.1,10
				c0,2.7-0.4,5.4-1.3,7.9c-1.1,2.6-2.3,4.5-3.6,5.8c-1.4,1.4-3.2,2.4-5.3,2.9c-1.9,0.6-4.1,0.8-6.6,0.8c-1.3,0-2.9-0.4-4.7-1.3
				c-1.5-0.8-3.2-2.2-5-4.3c-0.8-0.8-1.1-1.5-1.1-2.4c0-0.9,0.3-1.6,0.9-2.3c0.7-0.7,1.4-1,2.3-1c0.9,0,1.7,0.4,2.4,1.2
				c1.1,1.4,2.2,2.3,3.3,2.8c1.3,0.6,2.4,0.9,3.3,0.9c1.2-0.1,2.3-0.2,3.4-0.5c1-0.3,2-0.9,2.8-1.8c0.9-0.9,1.6-2.1,2.1-3.6
				c0.7-1.7,1-3.5,0.9-5.5c0.1-3.1-0.2-6.3-1.1-9.7h-18.8c-0.8-0.1-1.5-0.3-2.2-0.8c-0.7-0.6-1-1.3-1-2.2c0.1-1,0.3-1.8,0.8-2.3
				c0.7-0.5,1.5-0.8,2.4-0.8h16.2c-0.8-1.4-1.6-2.6-2.7-3.7c-1-0.9-1.4-2.1-1.4-3.6c0.1-1.4,0.7-2.6,1.8-3.7l7.7-10.9h-1.2h-13.7
				c-1.2,0-2-0.3-2.5-0.9c-0.5-0.6-0.8-1.3-0.8-2.2c0.1-1,0.3-1.7,0.8-2.2c0.6-0.5,1.4-0.8,2.5-0.8H990
				C992.1,129.1,993.6,129.3,994.4,129.9z"/>
			<g id="XMLID_121_">
				<path id="XMLID_122_" class="st1" d="M1080.8,193.3c-0.9,3.6-2.6,6.2-5,7.7c-2,1.1-2,1.6-5.3,1.5c-3.2,0-6.9-0.6-11.2-1.6
					c-1.1-0.3-1.9-0.9-2.4-1.5c-0.5-0.8-0.6-1.7-0.3-2.6c0.3-0.9,0.8-1.5,1.4-2c0.8-0.5,1.7-0.6,2.8-0.3c3.4,0.9,6.3,1.4,8.6,1.4
					c2.3,0,1.5-0.3,2.8-0.9c1.3-0.8,2.4-3.1,3.2-6.8c0.8-3.4,1.5-10,2.2-19.7c0.5-7.9,0.7-19.5,0.7-34.8c0-2.1-0.5-3.5-1.6-4.2
					c-1.1-0.8-2.6-1.2-4.5-1.2h-5.3c-0.1,7-0.8,15.3-1.8,25c-1.1,8.9-2.9,17.5-5.5,25.7c-2.5,8.1-5.4,15.5-8.6,22.3
					c-0.4,1-1,1.6-1.9,1.9c-0.8,0.2-1.5,0.2-2.2-0.1c-0.9-0.4-1.4-0.9-1.7-1.5c-0.3-0.8-0.2-1.8,0.2-2.8c2.8-5.9,5.5-12.7,7.9-20.4
					c2.9-8.8,4.8-17.3,5.7-25.6c1.1-9.7,1.7-17.9,1.8-24.5h-10.5c-1.2,0-2-0.3-2.5-0.9c-0.5-0.6-0.9-1.4-0.9-2.3
					c0-0.9,0.3-1.6,0.9-2.1c0.6-0.5,1.4-0.8,2.5-0.8h10.6v-10.2c0.1-1,0.3-1.9,0.8-2.5c0.5-0.6,1.3-0.8,2.2-0.8
					c0.9,0.1,1.6,0.3,2.1,0.8c0.7,0.5,1,1.4,1,2.5v10.2h6c2.1,0,4.1,0.4,6,1.2c1.8,0.8,3.1,2,4,3.4c1,1.7,1.5,4.2,1.4,7.5
					c-0.1,19.2-0.4,32.7-1,40.6C1082.7,182.7,1081.9,188.8,1080.8,193.3z M1092.2,118.4c1.9-1.9,4.2-2.8,6.9-2.8h6
					c2.7,0,5,0.9,6.9,2.6c1.6,1.7,2.5,3.9,2.5,6.7v65.7c-0.2,3-1.2,5.3-2.9,7c-1.6,1.5-4,2.3-7.1,2.4h-5.4c-2.7-0.1-5-1-6.7-2.7
					c-1.8-1.7-2.6-3.9-2.6-6.7v-65.7C1089.9,122.3,1090.7,120.1,1092.2,118.4z M1096,188.7c0.1,1.8,0.6,3.1,1.5,4
					c1,0.9,2.3,1.3,3.8,1.2h1.3c1.8-0.1,3.2-0.4,4.1-1.1c1.1-0.9,1.7-2.3,1.8-4.1v-61.5c-0.1-1.6-0.6-3-1.6-4c-1-1-2.2-1.5-3.6-1.4
					h-1.9c-1.6,0-2.9,0.4-3.8,1.3c-1,1.1-1.5,2.5-1.5,4.1V188.7z M1021.4,118.4c1.9-1.9,4.2-2.8,6.9-2.8h6c2.7,0,5,0.9,6.9,2.6
					c1.7,1.7,2.5,3.9,2.5,6.7v65.7c-0.2,3-1.2,5.3-2.9,7c-1.7,1.5-4,2.3-7.1,2.4h-5.4c-2.7-0.1-5-1-6.7-2.7
					c-1.8-1.7-2.6-3.9-2.6-6.7v-65.7C1019.1,122.3,1019.9,120.1,1021.4,118.4z M1025.1,188.7c0.1,1.8,0.6,3.1,1.5,4
					c1,0.9,2.3,1.3,3.8,1.2h1.3c1.9-0.1,3.2-0.4,4.1-1.1c1.1-0.9,1.7-2.3,1.8-4.1v-61.5c-0.1-1.6-0.6-3-1.6-4c-1-1-2.2-1.5-3.6-1.4
					h-1.9c-1.7,0-2.9,0.4-3.8,1.3c-1,1.1-1.5,2.5-1.5,4.1V188.7z"/>
			</g>
			<path id="XMLID_27_" class="st1" d="M921.5,163.3"/>
		</g>
	</g>
	<g id="XMLID_85_">
		<path id="XMLID_109_" class="st2" d="M566.7,258.8c1.9,0,4.3,0,5.8-0.1c1.6-0.1,1.6-0.2,1.6-0.6c0-0.6-1.4-3.7-1.4-3.8
			c0-0.1,0.2-0.3,0.4-0.3c0.8,0,5.6,3.8,5.6,7.2c0,1.6-1.1,2.5-2.3,2.5c-1.5,0-1.7-1.2-2-2.9c-0.1-0.9-0.2-1.1-0.6-1.1
			c-0.2,0-2.5,0.5-2.6,0.7c-0.3,0.3-0.3,4.1-0.3,5.1c0,2.5,0.3,13.8,0.3,16c0,2.3-1.8,3.5-3.1,3.5c-1,0-1.1-1-1.1-2.5
			c0-2.6,0.4-14.5,0.4-16.9c0-0.8,0-3.5-0.2-4.1c-0.1-0.5-0.3-0.6-1.1-0.6c-0.2,0-4.4,0.6-5.4,1.1c-0.3,0.1-1.4,1-1.7,1
			c-0.6,0-2.1-4.6-2.1-4.8c0-0.2,0.1-0.2,0.3-0.2c0.2,0,2.2,0.2,2.6,0.3c0.3,0,2.4,0.1,2.9,0.1c1.4,0,1.6-0.4,3.6-4.2
			c2.1-4.1,5.2-9.9,6-12.4c0.5-1.5,0.6-1.6,0.9-1.6c0.2,0,4.9,2.2,4.9,3.1c0,0.5-0.1,0.5-1.4,0.9c-0.8,0.2-1.4,0.7-1.8,1.2
			c-2.5,3.3-6,9-8.8,12.1c-0.2,0.2-0.4,0.6-0.3,0.8C566.1,258.7,566.5,258.8,566.7,258.8z M565.3,268.5c0,0.4-1.3,1.6-1.5,2
			c-1.3,2.4-2.9,6.5-4.5,8.9c-0.1,0.2-1.4,2.1-2,2.1c-0.1,0-0.2-0.1-0.2-0.2c0-0.2,1.8-5.4,2-6.3c1.2-4.6,1.2-7.3,1.2-7.8
			c0-1.1,0-1.2,0.4-1.2s1.8,0.6,2.3,0.8C564.5,267.4,565.3,267.9,565.3,268.5z M565.3,246.1c1.8,1.3,2.2,2.8,2.2,3.6
			c0,1.4-1.1,1.9-1.8,1.9c-0.4,0-0.8-0.1-1.3-0.6c-0.5-0.5-2.6-3.5-3.1-4.1c-0.5-0.5-3.2-2.9-3.2-3.1c0-0.2,0.2-0.3,0.5-0.3
			c0.6,0,3.4,1,4,1c0.4,0,0.5-0.2,1.3-2.2c0.7-1.6,2.4-5.7,2.4-9.8c0-0.2,0-0.6,0.4-0.6c0.1,0,5.5,1.8,5.5,3c0,0.2,0,0.5-0.2,0.6
			c-0.2,0.2-1.6,0.7-1.8,0.9c-0.7,0.6-3.3,4.6-3.9,5.5c-0.5,0.6-2.1,2.6-1.9,3.2C564.3,245.4,565.1,246,565.3,246.1z M575.6,264.9
			c-0.2-0.3-0.2-0.3-0.2-0.4c0-0.1,0.1-0.1,0.2-0.1c1.1,0,6.5,0.3,7.7,0.3c0.9,0,1.4-0.3,1.7-0.8c0.6-0.8,0.9-1.2,1.5-1.2
			c0.9,0,3.8,1.6,3.8,2.8c0,0.4-0.3,0.6-0.6,0.7c-1.2,0.5-1.2,0.5-1.6,1.2c-2.5,4.9-3.8,7.4-6.4,10.2c-4.2,4.6-9.5,6.8-9.6,6.8
			c-0.1,0-0.2,0-0.2-0.1c0-0.2,0.1-0.2,0.4-0.5c4.4-4.3,4.9-4.8,6-6.2c4.5-5.5,5.9-10.7,5.9-10.8c0-0.5-0.2-0.5-1.9-0.5
			c-0.7,0-4.3,0.2-4.9,0.2c-0.2,0-0.3-0.1-0.5-0.4L575.6,264.9z M578.7,273.9c0,2-1.5,2.5-2,2.5c-1.3,0-1.4-1.5-1.7-4
			c-0.1-0.8-0.5-2-1.6-4.4c-0.1-0.2-0.2-0.5-0.2-0.6c0-0.2,0.2-0.3,0.3-0.3c0.4,0,1.9,1.2,2.5,1.9
			C576.6,269.6,578.7,271.6,578.7,273.9z M585.3,258c-0.8,0-1.2,0-1.7,0.6c-0.6,0.8-1.4,1.6-2.5,1.6c-1.4,0-1.4-0.9-1.4-2.5
			c0-1.7,0.2-10.2,0.2-12c0-1-0.1-5.8-0.1-6.9c0-0.2,0-0.4,0.3-0.4c0.6,0,3.3,1.9,4,1.9c1.2,0,4.8-6.5,4.8-7.7
			c0.1-0.4,0.1-0.8,0.5-0.8c0.1,0,2.9,1.4,3.4,1.6c0.8,0.4,1.6,0.8,1.6,1.3c0,0.4-2.4,1.1-2.8,1.3c-1.9,1.3-4.3,3.6-4.3,4.1
			c0,0.4,0.1,0.4,1.1,0.4h11.3c1.2,0,1.6-0.1,2.1-0.8c1.3-2,1.5-2.2,2.1-2.2c0.8,0,4.1,2.2,4.1,3.5c0,0.4-0.3,0.8-0.7,1.2
			c-0.8,0.7-1.1,0.9-1.1,1.9c0,0.9,0.2,5.3,0.2,6.3c0,1.1,0.4,6.5,0.4,6.9c0,2.6-2.8,2.8-3.1,2.8c-0.8,0-0.9-0.2-1.3-1.4
			c-0.2-0.7-0.9-0.7-1.4-0.7h-6.8c-0.3,0-0.5,0-0.5,0.2c0,0.2,0.1,0.3,1.1,0.7c0.5,0.1,1.7,0.6,1.7,1.4c0,0.5-0.1,0.5-1.1,1.2
			c-0.1,0.1-0.4,0.3-0.4,0.7c0,0.4,1.8,3.8,2.1,4.5c0.5,0.9,1.2,2.4,1.9,2.4c1.4,0,5.4-4.2,6.7-5.7c0.1-0.2,0.6-0.8,0.8-0.8
			c0.3,0,4.1,3.5,4.1,4.1c0,0.2-0.2,0.3-0.4,0.3c-0.2,0.1-1.3-0.1-1.5-0.1c-1.7,0-2.9,0.6-8,2.9c-1.1,0.5-1.1,0.5-1.1,0.9
			c0,0.6,4,6.7,10.2,10.3c1.9,1.1,2.1,1.2,2.1,1.4c0,0.2-0.2,0.2-0.9,0.2c-0.8,0.1-2.2,0.2-3.4,0.6c-0.2,0.1-1.5,0.8-1.8,0.8
			c-0.5,0-6.6-7.1-9.9-14.9c-0.2-0.5-1.3-3.6-1.4-3.6c-0.2,0-0.2,1.7-0.2,2c0,0.6,0.1,9.8,0.1,10.9c0,3.6,0,4.9-1.3,5.9
			c-1.2,0.9-3.2,1.6-4.6,1.6c-0.4,0-0.5-0.1-0.6-0.4c-0.5-1-0.6-1.3-1.2-2c-0.4-0.4-2.2-1.9-2.2-2c0-0.2,0.2-0.2,1.7-0.2
			c4.4,0,4.6-0.6,4.6-4.9c0-2.7,0-15-0.3-16.7c-0.2-1.4-0.9-1.7-2.1-1.7H585.3z M585.4,242c-0.8,0-1.5,0.1-1.8,1.2v3.3
			c0,1.5,1.1,1.5,1.8,1.5h15.3c1.8,0,1.8-0.2,1.8-4.5c0-1.6-1.2-1.6-1.8-1.6H585.4z M585.4,249.7c-0.6,0-1.8,0.1-1.8,1.6
			c0,5,0,5.1,1.8,5.1H601c0.5,0,1.6-0.1,1.6-1.6c0-4.9,0-5.2-1.7-5.2H585.4z"/>
		<path id="XMLID_107_" class="st2" d="M695.5,254.1c2.1,0,2.1,0,3.3-1.7c1.6-2.4,1.8-2.6,2.3-2.6c0.7,0,6.1,4,6.1,5.1
			c0,0.8-1.2,0.8-3.2,0.8h-16.5c-0.5,0-1.5,0-1.8,0.8c-0.1,0.4-0.1,8.3-0.1,10.9c0,1.4,0,11.6,0.2,12.5c0.2,0.9,0.9,1,1.8,1h11.9
			c2.1,0,2.3,0,3.1-1.1c2.2-2.9,2.4-3.2,2.8-3.2c0.6,0,6.4,4.3,6.4,5.2c0,0.6-0.3,0.6-3,0.6h-40.1c-5.1,0-6.8,0.1-7.4,0.1
			c-0.2,0-1.1,0.2-1.2,0.2c-0.2,0-0.3-0.2-0.5-0.4l-1.1-1.4c-0.1-0.2-0.2-0.3-0.2-0.4c0-0.1,0.1-0.2,0.2-0.2c0.4,0,2.2,0.2,2.6,0.2
			c2.9,0.2,5.3,0.2,8.1,0.2h10.4c1.9,0,1.9-0.4,1.9-4.3c0-5.8,0-37.6-0.4-41.4c-0.1-0.4-0.3-1.9-0.3-2.2c0-0.2,0-0.4,0.2-0.4
			c0.9,0,4.8,1.3,5.6,1.6c0.5,0.1,1.4,0.4,1.4,1c0,0.4-0.2,0.5-1.1,0.9c-0.8,0.4-0.8,1.3-0.9,3.6c-0.2,4.8-0.2,5.8-0.2,12.5
			c0,1.3,0.1,2,1.9,2H695.5z"/>
		<path id="XMLID_103_" class="st2" d="M773.9,255c0.5,0,0.9,0,1.5-0.5c0.2-0.2,1.2-1.3,1.5-1.3c0.3,0,3.8,2.5,3.8,3.6
			c0,0.4-0.3,0.6-1,1.1c-0.8,0.5-0.8,1-1.1,4.9c-0.6,7.1-2.1,22.5-8,22.5c-0.6,0-0.9-0.4-1-0.7c-0.2-1.9-0.3-2.4-1.3-3.2
			c-0.3-0.2-2.1-0.9-2.1-1.3c0-0.2,0.3-0.2,0.5-0.2c0.4,0,1.9,0.3,2.4,0.3c1.5,0,2.8-0.4,3.7-3.8c1.4-5.5,2.4-13.4,2.4-18.3
			c0-1.5-0.4-1.6-1.9-1.6H771c-1.1,0-1.5,0.3-1.7,1.3c-0.8,4.2-1.2,7.1-2.3,10.9c-2.6,9.4-8.1,15-9.1,15c-0.1,0-0.2-0.1-0.2-0.2
			c0-0.4,2.4-4.5,2.8-5.3c3.8-8.1,5.9-21.9,5.9-30.7c0-2-0.2-2.5-1.5-2.5c-0.7,0-4.3,0.3-4.8,0.3c-0.2,0-0.4-0.2-0.5-0.4l-1.2-1.3
			c-0.2-0.2-0.2-0.3-0.2-0.4c0-0.1,0.1-0.1,0.2-0.1c0.9,0,5.8,0.4,6.9,0.4c2.2,0,2.2-0.1,2.2-6.2c0-0.6,0-2.1-0.3-3.1
			c-0.1-0.2-0.5-1.3-0.5-1.6c0-0.2,0.2-0.4,0.4-0.4c0.5,0,3.2,0.5,3.8,0.6c1.4,0.2,1.9,0.4,1.9,1.1c0,0.4-1.2,1.9-1.3,2.2
			c-0.2,0.9-0.2,1.8-0.2,5.6c0,1.1,0,1.6,1.4,1.6c1.9,0,2.2-0.1,2.6-0.2c0.6-0.3,2.6-3.4,3.4-3.4c0.9,0,3.9,3.9,3.9,4.4
			c0,0.8-1.2,0.8-3.2,0.8h-7.6c-0.1,0-0.4,0.1-0.4,0.2c0,0.1,0.5,0.6,0.5,0.8c0,0.3-1.2,1.1-1.4,1.4c-0.4,0.6-0.7,5.4-0.7,6.3
			c0,1.3,0.8,1.3,1.8,1.3H773.9z M797.1,263.3c0.8,0,5.8-7.2,7.2-13c0.1-0.4,0.1-2.6,0.5-2.6c0.2,0,4.9,4.1,4.9,5.1
			c0,0.1-0.1,0.3-0.2,0.4c-1.2,0.5-1.5,0.6-2.2,1.4c-2.5,3.2-6.1,6.8-6.5,7.2c-2.6,2.6-2.9,3.1-2.9,3.3c0,0.9,4.6,7.5,11.3,12.5
			c0.6,0.4,3.7,2.5,3.7,2.6c0,0.2-0.2,0.2-1.5,0.4c-0.4,0-2.4,0.3-3.4,1c-0.2,0.1-1,0.9-1.2,0.9c-0.4,0-10.2-8.3-14.2-25.5
			c-0.4-1.4-0.4-1.6-0.6-1.6c-0.4,0-1.3,1.2-1.4,1.3c-0.1,0.5-0.1,1.4-0.1,1.8c0,4.7,0.1,14.3,0.2,18.4c0.1,1,0.3,5.8,0.3,6.3
			c0,1.7-0.7,2.6-2.8,2.6c-1.5,0-1.8-0.5-1.8-1.2c0-0.4,0.2-2.2,0.2-2.6c0.4-7.1,0.4-9.3,0.4-13.7c0-1.1-0.1-6.2-0.1-7.3
			c0-0.4,0-0.9-0.4-0.9c-0.2,0-5.6,4.1-6.9,4.1c-0.1,0-0.2,0-0.2-0.2c0-0.2,2.1-2,2.5-2.4c3.6-3.4,9.5-11,10.2-14.9
			c0.1-0.7,0.2-1,0.5-1c0.5,0,5,2.9,5,4c0,0.4-0.1,0.4-0.9,0.6c-0.6,0.2-3.2,3.4-3.4,3.8C793,255.2,796.1,263.3,797.1,263.3z
			 M789,243.2c-1.8,0-1.9,0.4-2.9,2c-2.2,3.4-5.2,7.3-5.9,7.3c-0.2,0-0.4-0.2-0.4-0.4c0-0.2,1-1.9,1.2-2.2
			c2.6-4.9,5.7-13.3,5.7-16.5c0-0.2-0.1-1.2-0.1-1.4c0-0.2,0.1-0.4,0.4-0.4c0.3,0,5.5,2.1,5.5,3.1c0,0.4-1.5,1.2-1.7,1.5
			c-0.3,0.4-2.3,4.6-2.3,4.9c0,0.5,0.4,0.5,0.9,0.5h11.6c1.5,0,2.4,0,3.1-0.9c1.6-2.4,1.8-2.7,2.3-2.7c0.5,0,4.9,3.2,4.9,4.2
			c0,0.9-1,0.9-3.2,0.9H789z"/>
		<path id="XMLID_94_" class="st2" d="M870,269.8c-5.2,0-6.9,0.1-7.4,0.1c-0.2,0.1-1.1,0.2-1.3,0.2c-0.2,0-0.3-0.2-0.5-0.4l-1.2-1.4
			c-0.2-0.2-0.2-0.3-0.2-0.4c0-0.1,0.1-0.2,0.2-0.2c0.3,0,2.2,0.2,2.6,0.2c2.9,0.1,5.3,0.2,8.1,0.2h11.8c0.9,0,1.8,0,1.8-1.5
			c0-0.7-0.1-1.8-0.1-2.2c-0.1-0.3-0.3-1.4-0.3-1.6c0-0.6,0.4-0.6,0.6-0.6c0.5,0,4.8,0.5,4.8,1.6c0,0.2-0.5,0.7-1,1.2
			c-0.3,0.4-0.3,0.9-0.3,1.5c0,1.6,0.6,1.8,1.8,1.8h12.2c1.6,0,2.3,0,2.8-0.2c0.6-0.3,2.5-2.9,3.1-2.9c0.4,0,4.6,3.3,4.6,3.9
			c0,0.7-0.2,0.7-2.6,0.7h-18.9c-0.6,0-1,0-1,0.4c0,0.7,8.6,7.3,20.5,9.2c0.6,0.1,3.8,0.4,3.8,0.6c0,0.2-2.3,0.9-2.7,1.1
			c-1.6,0.9-2.1,1.7-2.6,2.6c-0.2,0.4-0.4,0.5-0.8,0.5c-0.2,0-11.5-3.7-18.7-12.1c-0.3-0.3-0.5-0.5-0.8-0.5c-0.4,0-0.4,0.2-0.4,0.4
			c0,0.4-0.1,1.5-0.1,2.5c0,4.4,0,4.8,0.1,6.5c0.1,0.4,0.2,1.9,0.2,2.2c0,1.9-1,2.3-2.4,2.3c-1.5,0-1.8-0.4-1.8-1.8
			c0-1.1,0.4-5.5,0.4-6.5c0-3.3,0-3.6-0.7-3.6c-0.3,0-0.5,0.1-2.1,1.1c-10.9,6.9-15.9,8.2-20.1,9.4c-0.5,0.1-1.6,0.4-1.8,0.4
			c-0.1,0-0.2-0.1-0.2-0.2c0-0.1,1.6-1,1.9-1.1c6.4-3.3,11.8-6.1,17.8-10.8c1.8-1.4,1.9-1.6,1.9-2.1c0-0.6-0.6-0.6-1.2-0.6H870z
			 M871.7,258.6c0.4-0.1,0.7-0.1,0.7-0.6c0-0.8-1.2-4.5-1.2-4.6c0-0.2,0.1-0.4,0.2-0.4c0.4,0,5.1,4.5,5.1,7.9c0,2.2-1.1,3.1-2,3.1
			c-0.8,0-0.9-0.3-1.4-2.8c-0.2-0.6-0.4-1.2-0.8-1.2c-0.2,0-9,2.5-9.4,2.6c-0.3,0.1-1.6,1.3-2,1.3c-0.9,0-1.9-4.9-1.9-5.1
			c0-0.2,0.1-0.8,0.5-0.8c0.2,0,1.4,0.7,1.6,0.8c0.5,0.1,1.5,0.1,2.1,0.1c1.1,0,1.4-0.4,2.5-2.5c2.2-4.1,5.6-10.8,6.2-13.9
			c0.3-1.4,0.3-1.5,0.6-1.5c0.9,0,4.3,3,4.3,3.5c0,0.5-0.2,1-0.7,1.2c-1.2,0.7-1.5,0.8-2.2,1.8c-0.9,1.2-4.9,7.2-5.9,8.5
			c-1.6,2.1-1.8,2.3-1.8,2.6c0,0.3,0.3,0.4,0.8,0.3C867.7,258.9,870.4,258.7,871.7,258.6z M865.7,243.1c0.9,0,2.8-5.4,3.4-9.2
			c0.2-1.3,0.2-1.4,0.7-1.4c0.5,0,4.6,2.9,4.6,3.7c0,0.4-0.5,0.6-1.5,1.1c-0.9,0.4-1.5,1.4-2.2,2.5c-0.5,0.8-3.2,4.5-3.2,5.1
			c0,0.3,0.1,0.5,0.5,1c0.4,0.5,0.6,1.1,0.6,1.9c0,1.4-0.8,2.8-1.6,2.8c-0.2,0-0.5-0.2-0.7-0.3c-0.2-0.4-1.3-2.1-1.5-2.5
			c-1.5-2.9-1.8-3.4-3.7-5.9c-0.5-0.7-0.6-0.8-0.5-0.9C861,240.4,865.1,243.1,865.7,243.1z M886.9,240.6c0.9,0,1.5,0,2.4-0.9
			c0.5-0.5,0.6-0.7,1.1-0.7c0.4,0,3.5,1.5,3.5,2.2c0,0.2-1.2,0.9-1.4,1.2c-0.2,0.2-0.2,0.4-0.2,1.9v10.9c0,0.6,0.4,3.1,0.4,3.6
			c0,2-2.1,2.2-2.5,2.2c-1.3,0-1.4-0.4-1.5-1.2c-0.2-0.8-0.9-0.8-1.4-0.8h-3.6c-1.1,0-1.2,0.3-1.5,0.9c-0.4,0.9-1.4,1.3-2.1,1.3
			c-1.4,0-1.4-1.3-1.4-2.1c0-0.8,0.1-4.1,0.1-4.8c0-1.2,0.1-6.7,0.1-7.8c0-0.8-0.1-4.9-0.2-5.4c-0.1-0.3-0.3-1.5-0.3-1.8
			c0-0.4,0.3-0.5,0.6-0.5c0.3,0,1.8,0.6,2.1,0.6c1.4,0,2.1-5.8,2.1-6.1c0-0.8,0.2-1,0.7-1c0.4,0,1.6,0.6,2.4,1
			c1.5,0.6,1.8,0.8,1.8,1.5c0,0.4-1.5,1.5-1.8,1.7c-0.4,0.5-2.5,3.3-2.5,3.5c0,0.4,0.5,0.4,0.8,0.4H886.9z M883.6,242.1
			c-1.6,0-1.6,0.4-1.6,2.3c0,3.3,0,3.8,0.4,4c0.4,0.3,0.9,0.3,1.2,0.3h3.5c0.5,0,1.2,0,1.5-0.5c0.1-0.3,0.1-3.3,0.1-5
			c0-1.1-1.1-1.1-1.6-1.1H883.6z M887.1,257.4c1,0,1.6-0.2,1.6-1.5c0-3.9,0-4.4-0.1-4.6c-0.1-1-0.9-1-1.5-1h-3.4
			c-1.6,0-1.6,0.4-1.6,4.1c0,2.6,0,3,1.6,3H887.1z M905.7,258.2c0.3-0.1,0.6-0.2,0.6-0.6c0-0.7-1.1-4.2-1.1-4.4c0-0.1,0-0.3,0.2-0.3
			c0.4,0,5.1,4.5,5.1,7.9c0,2.1-0.9,3.2-2,3.2c-0.9,0-0.9-0.2-1.4-2.8c-0.2-0.9-0.2-1.2-0.9-1.2c-0.4,0-8.1,2.2-8.3,2.3
			c-0.4,0.1-1.6,1.2-2,1.2c-1,0-1.9-4.9-1.9-5.1c0-0.2,0.1-0.7,0.5-0.7c0.2,0,0.5,0.2,0.9,0.4c0.3,0.2,0.9,0.4,1.6,0.4
			c1.2,0,1.4-0.2,2.9-2.7c0.8-1.3,5.3-8.6,6.4-12.5c0.2-0.9,0.4-1.4,0.6-1.4c0.6,0,1.1,0.4,2.6,1.8c1.6,1.5,1.8,1.7,1.8,2.2
			c0,0.6-0.4,0.9-0.8,1c-1.8,0.8-1.9,0.9-3.3,2.9c-1.1,1.4-6.9,7.8-6.9,8.3c0,0.4,0.4,0.4,0.9,0.4
			C901.7,258.6,905.3,258.3,905.7,258.2z M899.5,241.6c0.6-1.4,1.9-4.6,2.5-8c0.2-1.4,0.3-1.5,0.8-1.5c0.5,0,4.6,2.9,4.6,3.8
			c0,0.4-0.6,0.6-1.5,1.1c-0.9,0.4-1.5,1.3-1.8,1.8c-0.6,0.9-3.6,5-3.6,5.5c0,0.4,0.5,1,1,1.5c0.9,1.1,0.9,2.6,0.9,2.8
			c0,1.4-0.8,2.5-1.4,2.5c-0.4,0-0.8-0.4-1.1-0.8c-0.4-0.5-0.9-1.6-2.4-4.3c-0.4-0.8-3.1-4.3-3.1-4.4c0-0.1,0.1-0.1,0.1-0.1
			c0.6,0,3.6,1.6,3.8,1.6C898.8,243.1,898.9,243,899.5,241.6z"/>
		<path id="XMLID_90_" class="st2" d="M972.9,237.6c-5.1,0-6.8,0.1-7.4,0.2c-0.2,0-1.1,0.1-1.2,0.1c-0.2,0-0.3-0.1-0.5-0.4l-1.1-1.4
			c-0.2-0.3-0.2-0.3-0.2-0.4c0-0.1,0.1-0.1,0.2-0.1c0.4,0,2.2,0.2,2.6,0.2c2.9,0.2,5.3,0.2,8.1,0.2H999c2.4,0,2.7,0,3.2-0.4
			c0.5-0.4,2.3-2.8,2.9-2.8c0.8,0,5.5,3.6,5.5,4.1c0,0.6-0.3,0.6-3.1,0.6h-17.3c-1.8,0-1.8,0.6-1.8,3.9c0,1.8,0.1,17.6,0.1,18
			c0.3,0.9,1.2,0.9,1.8,0.9h11.5c2.7,0,3,0,3.8-1c1.7-2.4,1.9-2.6,2.5-2.6c1.1,0,4.9,4,4.9,4.3c0,0.8-1.2,0.8-3.1,0.8h-19.5
			c-1.2,0-1.9,0.2-1.9,2c0,2.5,0.2,13.6,0.2,15.8c0,2.8,0,6.1-2.9,6.1c-1.9,0-1.9-1.7-1.9-2.3c0-2.8,0.4-14.9,0.4-17.3
			c0-3.8,0-4.2-1.9-4.2h-12c-5.2,0-6.9,0.1-7.5,0.2c-0.2,0-1.1,0.2-1.2,0.2c-0.2,0-0.3-0.2-0.5-0.4l-1.1-1.4
			c-0.2-0.2-0.2-0.3-0.2-0.4c0-0.1,0.1-0.2,0.2-0.2c0.4,0,2.2,0.2,2.6,0.2c2.9,0.1,5.3,0.2,8.1,0.2h11.8c0.6,0,1.4,0,1.7-0.6
			c0.2-0.5,0.2-3.2,0.2-5.2c0-0.2,0-15.7-0.1-15.9c-0.1-0.9-0.7-1.1-1.6-1.1H972.9z M966.3,241.9c0.8,0,9.7,5.7,9.7,12.1
			c0,1.6-1.1,3-2.6,3c-1.6,0-1.9-0.8-2.9-4.8c-0.2-0.9-1-4.1-3-7.5c-0.2-0.4-1.4-2.1-1.5-2.3C966,242.1,966,241.9,966.3,241.9z
			 M1005.6,245.7c-1.3,0.7-4.8,6.2-5.6,7.2c-2.1,2.4-4.8,5-5.5,5c-0.2,0-0.5-0.1-0.5-0.5c0-0.1,1.1-1.8,1.2-1.9
			c3.4-5.4,6.2-11.4,6.2-14.2c0-1.1,0-1.3,0.4-1.3c0.1,0,5.6,3.3,5.6,4.3C1007.3,244.8,1007.2,244.8,1005.6,245.7z"/>
		<path id="XMLID_86_" class="st2" d="M1098.9,242.5c0-0.1,0.1-0.1,0.2-0.1c1.6,0,14.3,6.1,14.3,12.6c0,2.6-1.9,3.1-2.4,3.1
			c-1.1,0-1.4-0.5-3.8-4.8c-0.9-1.6-1.4-1.8-2.2-1.8c-0.8,0-7.2,0.8-8.5,0.9c-25.9,2.4-29.9,2.7-31.2,3.3c-0.2,0.1-1.1,0.8-1.3,0.8
			c-1.1,0-1.8-5.4-1.8-5.9c0-0.5,0.2-0.5,0.5-0.5c0.2,0,1.5,0.2,1.8,0.2c3.8,0.3,6.7,0.5,7.6,0.5c2.1,0,2.4-0.2,3.4-1.8
			c0.4-0.6,7.1-10.6,7.6-15.8c0.1-1,0.1-1.1,0.4-1.1c0.5,0,7.1,2.1,7.1,3.5c0,0.2-0.1,0.4-0.4,0.6c-0.2,0.1-1.5,0.5-1.7,0.6
			c-0.6,0.3-2.9,3.3-4.3,5.2c-1,1.3-6.8,7.8-6.8,8.3s1.2,0.5,1.3,0.5c5.9,0,16.9-0.4,23-0.9c1.8-0.1,2-0.2,2.1-0.4
			C1104.4,248.1,1098.9,243.1,1098.9,242.5z M1099,262.1c1.1,0,1.8-0.1,2.5-0.8c1.2-1.2,1.4-1.4,1.8-1.4c0.7,0,3.5,2,3.5,3.3
			c0,0.5-0.4,0.8-0.9,1.2c-0.7,0.5-0.9,0.7-0.9,6.5c0,1.3,0.3,7.8,0.3,9.3c0,4.1-3.1,4.1-3.3,4.1c-1.6,0-1.6-0.9-1.6-2.2
			c0-1.6-1.2-1.6-1.8-1.6h-23.9c-1.4,0-1.8,0.5-1.8,1.5c-0.1,2.6-2.1,3.6-3.4,3.6c-0.4,0-1.5,0-1.5-2.1c0-0.2,0.1-0.9,0.1-1.7
			c0.2-3.6,0.2-11.3,0.2-12.2c0-3.2-0.1-5.1-0.2-7.1c0-0.2-0.2-1.4-0.2-1.7c0-0.4,0.4-0.5,0.8-0.5c0.8,0,1.9,0.5,4.4,1.4
			c1.1,0.4,1.9,0.4,2.6,0.4H1099z M1074.6,263.7c-1.8,0-1.9,0.8-1.9,2.3v9.7c0,2.4,0,3.1,1.8,3.1h24.2c1.8,0,1.8-0.8,1.8-2.3v-9.7
			c0-2.5,0-3.1-1.8-3.1H1074.6z"/>
	</g>
</g>
</svg>
